<?xml version="1.0" encoding="UTF-8" standalone="no"?>
<!DOCTYPE svg PUBLIC "-//W3C//DTD SVG 1.1//EN" "http://www.w3.org/Graphics/SVG/1.1/DTD/svg11.dtd">
<svg width="100%" height="100%" viewBox="0 0 250 250" version="1.1" xmlns="http://www.w3.org/2000/svg" xmlns:xlink="http://www.w3.org/1999/xlink" xml:space="preserve" xmlns:serif="http://www.serif.com/" style="fill-rule:evenodd;clip-rule:evenodd;stroke-miterlimit:10;">
    <rect x="0" y="0" width="340" height="250" style="fill:rgb(24,33,42);fill-opacity:0;"/>
    <g transform="matrix(2.34439,0,0,2.34439,14.8136,14.8136)">
        <g>
            <g>
                <rect x="0" y="0" width="60" height="60" style="fill:white;fill-opacity:0;"/>
                <g transform="matrix(1,0,0,1,-0.8,-0.8)">
                    <g>
                        <path d="M48.8,48.8C32.1,48.8 18.5,35.3 18.5,18.5L18.5,14L43,14M29.2,14C28.4,16.6 27.9,19.4 27.9,22.3C27.9,35.2 33,48.8 48.8,48.8M69.4,20.2L52,2.8L48.8,6C37,17.9 37,37 48.8,48.8M59.5,10.3C57,11.6 54.7,13.2 52.7,15.3C43.6,24.4 37.6,37.6 48.8,48.8M83.6,43.1L83.6,18.6L79.1,18.6C62.4,18.6 48.8,32.1 48.8,48.9M83.6,29.2C81,28.4 78.2,27.9 75.3,27.9C62.4,27.9 48.8,33 48.8,48.8M77.5,69.4L94.8,52L91.6,48.8C79.8,37 60.6,37 48.8,48.8M87.3,59.5C86,57 84.4,54.7 82.3,52.7C73.2,43.6 60,37.6 48.8,48.8M54.6,83.6L79.1,83.6L79.1,79.1C79.1,62.4 65.6,48.8 48.8,48.8M68.5,83.6C69.3,81 69.8,78.2 69.8,75.3C69.8,62.4 64.7,48.8 48.9,48.8M28.3,77.5L45.6,94.8L48.8,91.6C60.6,79.8 60.6,60.6 48.8,48.8M38.1,87.3C40.6,86 42.9,84.4 44.9,82.3C54,73.2 60,60 48.8,48.8M14,54.6L14,79.1L18.5,79.1C35.2,79.1 48.8,65.6 48.8,48.8M14,68.5C16.6,69.3 19.4,69.8 22.3,69.8C35.2,69.8 48.8,64.7 48.8,48.9M20.2,28.3L2.8,45.6L6,48.8C17.8,60.6 37,60.6 48.8,48.8M10.3,38.1C11.6,40.6 13.2,42.9 15.3,44.9C24.4,54 37.6,60 48.8,48.8" style="fill:none;fill-rule:nonzero;stroke:rgb(51,51,51);stroke-width:4px;"/>
                    </g>
                </g>
            </g>
        </g>
    </g>
</svg>
