<?xml version="1.0" encoding="UTF-8" standalone="no"?>
<!DOCTYPE svg PUBLIC "-//W3C//DTD SVG 1.1//EN" "http://www.w3.org/Graphics/SVG/1.1/DTD/svg11.dtd">
<svg width="100%" height="100%" viewBox="0 0 340 170" version="1.1" xmlns="http://www.w3.org/2000/svg" xmlns:xlink="http://www.w3.org/1999/xlink" xml:space="preserve" xmlns:serif="http://www.serif.com/" style="fill-rule:evenodd;clip-rule:evenodd;stroke-miterlimit:10;">
    <g transform="matrix(1,0,0,1,0,-40)">
        <rect x="0" y="0" width="340" height="250" style="fill:rgb(24,33,42);fill-opacity:0;"/>
    </g>
    <g transform="matrix(1,0,0,1,86.125,55)">
        <g transform="matrix(1.57915,0,0,1.57915,-81.5299,-44.22)">
            <g>
                <rect x="0" y="0" width="60" height="60" style="fill:white;fill-opacity:0;"/>
                <g transform="matrix(1,0,0,1,-0.8,-0.8)">
                    <g>
                        <path d="M48.8,48.8C32.1,48.8 18.5,35.3 18.5,18.5L18.5,14L43,14M29.2,14C28.4,16.6 27.9,19.4 27.9,22.3C27.9,35.2 33,48.8 48.8,48.8M69.4,20.2L52,2.8L48.8,6C37,17.9 37,37 48.8,48.8M59.5,10.3C57,11.6 54.7,13.2 52.7,15.3C43.6,24.4 37.6,37.6 48.8,48.8M83.6,43.1L83.6,18.6L79.1,18.6C62.4,18.6 48.8,32.1 48.8,48.9M83.6,29.2C81,28.4 78.2,27.9 75.3,27.9C62.4,27.9 48.8,33 48.8,48.8M77.5,69.4L94.8,52L91.6,48.8C79.8,37 60.6,37 48.8,48.8M87.3,59.5C86,57 84.4,54.7 82.3,52.7C73.2,43.6 60,37.6 48.8,48.8M54.6,83.6L79.1,83.6L79.1,79.1C79.1,62.4 65.6,48.8 48.8,48.8M68.5,83.6C69.3,81 69.8,78.2 69.8,75.3C69.8,62.4 64.7,48.8 48.9,48.8M28.3,77.5L45.6,94.8L48.8,91.6C60.6,79.8 60.6,60.6 48.8,48.8M38.1,87.3C40.6,86 42.9,84.4 44.9,82.3C54,73.2 60,60 48.8,48.8M14,54.6L14,79.1L18.5,79.1C35.2,79.1 48.8,65.6 48.8,48.8M14,68.5C16.6,69.3 19.4,69.8 22.3,69.8C35.2,69.8 48.8,64.7 48.8,48.9M20.2,28.3L2.8,45.6L6,48.8C17.8,60.6 37,60.6 48.8,48.8M10.3,38.1C11.6,40.6 13.2,42.9 15.3,44.9C24.4,54 37.6,60 48.8,48.8" style="fill:none;fill-rule:nonzero;stroke:rgb(51,51,51);stroke-width:4px;"/>
                    </g>
                </g>
            </g>
        </g>
        <g transform="matrix(1.57915,0,0,1.57915,85.1431,65.9336)">
            <g>
                <g>
                    <g>
                        <path d="M14.24,0.58C20.73,0.58 25.29,-4.29 25.29,-10.79L25.29,-34.71C25.29,-41.21 20.73,-46.09 14.24,-46.09C7.74,-46.09 3.19,-41.21 3.19,-34.06L3.19,-11.44C3.19,-4.29 7.74,0.58 14.24,0.58ZM14.24,-3.06C10.01,-3.06 7.08,-6.31 7.08,-11.44L7.08,-34.06C7.08,-39.2 10.01,-42.45 14.24,-42.45C18.46,-42.45 21.39,-39.2 21.39,-34.71L21.39,-10.79C21.39,-6.31 18.46,-3.06 14.24,-3.06ZM42.71,0.58C49.2,0.58 53.76,-4.29 53.76,-10.79L53.76,-34.71C53.76,-41.21 49.2,-46.09 42.71,-46.09C36.21,-46.09 31.66,-41.21 31.66,-34.06L31.66,-11.44C31.66,-4.29 36.21,0.58 42.71,0.58ZM42.71,-3.06C38.48,-3.06 35.55,-6.31 35.55,-11.44L35.55,-34.06C35.55,-39.2 38.48,-42.45 42.71,-42.45C46.93,-42.45 49.86,-39.2 49.86,-34.71L49.86,-10.79C49.86,-6.31 46.93,-3.06 42.71,-3.06ZM76.7,-45.5L57.2,-45.5C56.81,-45.5 56.55,-45.24 56.55,-44.85L56.55,-42.51C56.55,-42.12 56.81,-41.86 57.2,-41.86L65,-41.86L65,-0.65C65,-0.26 65.26,0 65.65,0L68.25,0C68.64,0 68.9,-0.26 68.9,-0.65L68.9,-41.86L76.7,-41.86C77.09,-41.86 77.35,-42.12 77.35,-42.51L77.35,-44.85C77.35,-45.24 77.09,-45.5 76.7,-45.5ZM84.56,0.13L93.34,0.13C99.78,0.13 103.94,-4.75 103.94,-11.18L103.94,-34.26C103.94,-40.76 99.91,-45.63 93.34,-45.63L84.56,-45.63C83.33,-45.63 82.61,-44.91 82.61,-43.68L82.61,-1.82C82.61,-0.58 83.33,0.13 84.56,0.13ZM86.52,-3.51L86.52,-41.99L93.34,-41.99C97.5,-41.99 100.03,-38.74 100.03,-34.26L100.03,-11.18C100.03,-6.76 97.44,-3.51 93.34,-3.51L86.52,-3.51Z" style="fill:rgb(51,51,51);fill-rule:nonzero;"/>
                    </g>
                </g>
            </g>
        </g>
    </g>
</svg>
